<svg xmlns="http://www.w3.org/2000/svg" xmlns:svg="http://www.w3.org/2000/svg" id="svg7978" width="202" height="202" version="1.1"><metadata id="metadata7983"/><g id="layer7" transform="translate(1,1)"><path id="path8747" d="m 200,100 a 100,100 0 1 1 -200,0 100,100 0 1 1 200,0 z" transform="matrix(1.01,0,0,1.01,-1,-1)" style="opacity:.4;fill:#000;fill-opacity:1;stroke:#fff;stroke-opacity:1"/></g><g id="layer1" transform="translate(1,-851.36218)" style="display:inline"><path style="fill:none;stroke:#fff;stroke-width:3;stroke-linecap:round;stroke-linejoin:bevel;stroke-miterlimit:4;stroke-opacity:1;stroke-dasharray:none;stroke-dashoffset:0" id="path7988" d="m 200,100 a 100,100 0 1 1 -200,0 100,100 0 1 1 200,0 z" transform="matrix(0.98522168,0,0,0.98522167,1.7278325,853.84002)"/><text style="font-size:16px;font-style:normal;font-variant:normal;font-weight:700;font-stretch:normal;text-align:start;line-height:125%;letter-spacing:0;word-spacing:0;writing-mode:lr-tb;text-anchor:start;fill:#fff;fill-opacity:1;stroke:#000;stroke-width:.5;stroke-miterlimit:4;stroke-opacity:1;stroke-dasharray:none;font-family:Sans;-inkscape-font-specification:Sans Bold" id="text8501" x="93" y="885.862" xml:space="preserve"><tspan id="tspan8503" x="93" y="885.862">N</tspan></text><path id="path8578" d="m 198.53508,952.61405 c -12.60834,-5.28878 -12.82204,-5.03693 -12.82204,-5.03693 l 0,9.57017 0,0.25185 z" style="fill:#fff;fill-opacity:1;stroke:#000;stroke-width:1;stroke-linecap:butt;stroke-linejoin:miter;stroke-miterlimit:4;stroke-opacity:1;stroke-dasharray:none"/><path style="fill:#fff;fill-opacity:1;stroke:#000;stroke-width:1;stroke-linecap:butt;stroke-linejoin:miter;stroke-miterlimit:4;stroke-opacity:1;stroke-dasharray:none" id="path8591" d="m 100.50093,1050.8982 c -5.288778,-12.6083 -5.036928,-12.822 -5.036928,-12.822 l 9.570168,0 0.25185,0 z"/><path id="path8593" d="m 1.46304,952.36405 c 12.60834,-5.28878 12.82204,-5.03693 12.82204,-5.03693 l 0,9.57017 0,0.25185 z" style="fill:#fff;fill-opacity:1;stroke:#000;stroke-width:1;stroke-linecap:butt;stroke-linejoin:miter;stroke-miterlimit:4;stroke-opacity:1;stroke-dasharray:none"/><text style="font-size:16px;font-style:normal;font-variant:normal;font-weight:700;font-stretch:normal;text-align:start;line-height:125%;letter-spacing:0;word-spacing:0;writing-mode:lr-tb;text-anchor:start;fill:#fff;fill-opacity:1;stroke:#000;stroke-width:.5;stroke-miterlimit:4;stroke-opacity:1;stroke-dasharray:none;font-family:Sans;-inkscape-font-specification:Sans Bold" id="text8595" x="946.917" y="-166.281" transform="matrix(0,1,-1,0,0,0)" xml:space="preserve"><tspan id="tspan8599" x="946.917" y="-166.281">E</tspan></text><text style="font-size:16px;font-style:normal;font-variant:normal;font-weight:700;font-stretch:normal;text-align:start;line-height:125%;letter-spacing:0;word-spacing:0;writing-mode:lr-tb;text-anchor:start;fill:#fff;fill-opacity:1;stroke:#000;stroke-width:.5;stroke-miterlimit:4;stroke-opacity:1;stroke-dasharray:none;font-family:Sans;-inkscape-font-specification:Sans Bold" id="text8603" x="-105.75" y="-1018.714" transform="scale(-1,-1)" xml:space="preserve"><tspan id="tspan8605" x="-105.75" y="-1018.714">S</tspan></text><text style="font-size:16px;font-style:normal;font-variant:normal;font-weight:700;font-stretch:normal;text-align:start;line-height:125%;letter-spacing:0;word-spacing:0;writing-mode:lr-tb;text-anchor:start;fill:#fff;fill-opacity:1;stroke:#000;stroke-width:.5;stroke-miterlimit:4;stroke-opacity:1;stroke-dasharray:none;font-family:Sans;-inkscape-font-specification:Sans Bold" id="text8607" x="-960.843" y="33.645" transform="matrix(0,-1,1,0,0,0)" xml:space="preserve"><tspan id="tspan8609" x="-960.843" y="33.645">W</tspan></text><rect style="fill:#fff;fill-opacity:1;fill-rule:nonzero;stroke:#000;stroke-width:.92246753;stroke-opacity:1" id="rect8623" width="3.578" height="5.828" x="950.698" y="-185.414" transform="matrix(0,1,-1,0,0,0)"/><g id="g8688"><path id="path8507" d="m 100.00093,854.32616 c -5.288781,12.60834 -5.036934,12.82204 -5.036934,12.82204 l 9.570174,0 0.25185,0 z" style="fill:#fff;fill-opacity:1;stroke:#000;stroke-width:1;stroke-linecap:butt;stroke-linejoin:miter;stroke-miterlimit:4;stroke-opacity:1;stroke-dasharray:none"/><rect style="fill:#fff;fill-opacity:1;fill-rule:nonzero;stroke:#000;stroke-width:.92246753;stroke-opacity:1" id="rect8625" width="3.578" height="5.828" x="98.211" y="867.323"/></g><rect id="rect8627" width="3.578" height="5.828" x="-102.039" y="-1038.151" transform="scale(-1,-1)" style="fill:#fff;fill-opacity:1;fill-rule:nonzero;stroke:#000;stroke-width:.92246753;stroke-opacity:1"/><rect style="fill:#fff;fill-opacity:1;fill-rule:nonzero;stroke:#000;stroke-width:.92246753;stroke-opacity:1" id="rect8629" width="3.578" height="5.828" x="950.698" y="-20.164" transform="matrix(0,1,-1,0,0,0)"/><g id="g8692" transform="matrix(0.70710678,-0.70710678,0.70710678,0.70710678,-644.48925,349.09911)"><path style="fill:#fff;fill-opacity:1;stroke:#000;stroke-width:1;stroke-linecap:butt;stroke-linejoin:miter;stroke-miterlimit:4;stroke-opacity:1;stroke-dasharray:none" id="path8694" d="m 100.00093,854.32616 c -5.288781,12.60834 -5.036934,12.82204 -5.036934,12.82204 l 9.570174,0 0.25185,0 z"/><rect id="rect8696" width="3.578" height="5.828" x="98.211" y="867.323" style="fill:#fff;fill-opacity:1;fill-rule:nonzero;stroke:#000;stroke-width:.92246753;stroke-opacity:1"/></g><g id="g8698" transform="matrix(-0.70710678,-0.70710678,-0.70710678,0.70710678,844.41963,349.09911)"><path id="path8700" d="m 100.00093,854.32616 c -5.288781,12.60834 -5.036934,12.82204 -5.036934,12.82204 l 9.570174,0 0.25185,0 z" style="fill:#fff;fill-opacity:1;stroke:#000;stroke-width:1;stroke-linecap:butt;stroke-linejoin:miter;stroke-miterlimit:4;stroke-opacity:1;stroke-dasharray:none"/><rect style="fill:#fff;fill-opacity:1;fill-rule:nonzero;stroke:#000;stroke-width:.92246753;stroke-opacity:1" id="rect8702" width="3.578" height="5.828" x="98.211" y="867.323"/></g><g id="g8704" transform="matrix(0.70710678,0.70710678,0.70710678,-0.70710678,-644.73925,1555.414)"><path id="path8706" d="m 100.00093,854.32616 c -5.288781,12.60834 -5.036934,12.82204 -5.036934,12.82204 l 9.570174,0 0.25185,0 z" style="fill:#fff;fill-opacity:1;stroke:#000;stroke-width:1;stroke-linecap:butt;stroke-linejoin:miter;stroke-miterlimit:4;stroke-opacity:1;stroke-dasharray:none"/><rect style="fill:#fff;fill-opacity:1;fill-rule:nonzero;stroke:#000;stroke-width:.92246753;stroke-opacity:1" id="rect8708" width="3.578" height="5.828" x="98.211" y="867.323"/></g><g id="g8710" transform="matrix(-0.70710678,0.70710678,-0.70710678,-0.70710678,844.41963,1555.414)"><path style="fill:#fff;fill-opacity:1;stroke:#000;stroke-width:1;stroke-linecap:butt;stroke-linejoin:miter;stroke-miterlimit:4;stroke-opacity:1;stroke-dasharray:none" id="path8712" d="m 100.00093,854.32616 c -5.288781,12.60834 -5.036934,12.82204 -5.036934,12.82204 l 9.570174,0 0.25185,0 z"/><rect id="rect8714" width="3.578" height="5.828" x="98.211" y="867.323" style="fill:#fff;fill-opacity:1;fill-rule:nonzero;stroke:#000;stroke-width:.92246753;stroke-opacity:1"/></g><text id="text8716" x="-618.656" y="677.436" transform="matrix(0.70710678,-0.70710678,0.70710678,0.70710678,0,0)" xml:space="preserve" style="font-size:16px;font-style:normal;font-variant:normal;font-weight:700;font-stretch:normal;text-align:start;line-height:125%;letter-spacing:0;word-spacing:0;writing-mode:lr-tb;text-anchor:start;fill:#fff;fill-opacity:1;stroke:#000;stroke-width:.5;stroke-miterlimit:4;stroke-opacity:1;stroke-dasharray:none;font-family:Sans;-inkscape-font-specification:Sans Bold"><tspan id="tspan8718" x="-618.656" y="677.436" style="stroke-width:.5">NW</tspan></text><text style="font-size:16px;font-style:normal;font-variant:normal;font-weight:700;font-stretch:normal;text-align:start;line-height:125%;letter-spacing:0;word-spacing:0;writing-mode:lr-tb;text-anchor:start;fill:#fff;fill-opacity:1;stroke:#000;stroke-width:.5;stroke-miterlimit:4;stroke-opacity:1;stroke-dasharray:none;font-family:Sans;-inkscape-font-specification:Sans Bold" id="text8720" x="732.159" y="537.727" transform="matrix(0.70710678,0.70710678,-0.70710678,0.70710678,0,0)" xml:space="preserve"><tspan id="tspan8722" x="732.159" y="537.727" style="stroke-width:.5">NE</tspan></text><text style="font-size:16px;font-style:normal;font-variant:normal;font-weight:700;font-stretch:normal;text-align:start;line-height:125%;letter-spacing:0;word-spacing:0;writing-mode:lr-tb;text-anchor:start;fill:#fff;fill-opacity:1;stroke:#000;stroke-width:.5;stroke-miterlimit:4;stroke-opacity:1;stroke-dasharray:none;font-family:Sans;-inkscape-font-specification:Sans Bold" id="text8724" x="592.459" y="-808.166" transform="matrix(-0.70710678,0.70710678,-0.70710678,-0.70710678,0,0)" xml:space="preserve"><tspan id="tspan8726" x="592.459" y="-808.166" style="stroke-width:.5">SE</tspan></text><text style="font-size:16px;font-style:normal;font-variant:normal;font-weight:700;font-stretch:normal;text-align:start;line-height:125%;letter-spacing:0;word-spacing:0;writing-mode:lr-tb;text-anchor:start;fill:#fff;fill-opacity:1;stroke:#000;stroke-width:.5;stroke-miterlimit:4;stroke-opacity:1;stroke-dasharray:none;font-family:Sans;-inkscape-font-specification:Sans Bold" id="text8728" x="-759.486" y="-668.661" transform="matrix(-0.70710678,-0.70710678,0.70710678,-0.70710678,0,0)" xml:space="preserve"><tspan id="tspan8730" x="-759.486" y="-668.661" style="stroke-width:.5">SW</tspan></text></g></svg>