<svg xmlns="http://www.w3.org/2000/svg" xmlns:svg="http://www.w3.org/2000/svg" xmlns:xlink="http://www.w3.org/1999/xlink" id="svg2" width="200" height="200" version="1.1"><defs id="defs4"><linearGradient id="linearGradient3875"><stop id="stop3877" offset="0" style="stop-color:#515151;stop-opacity:1"/><stop id="stop3879" offset="1" style="stop-color:#d8d8d8;stop-opacity:1"/></linearGradient><linearGradient id="linearGradient3835"><stop style="stop-color:#e4e4e4;stop-opacity:1" id="stop3837" offset="0"/><stop style="stop-color:#858585;stop-opacity:1" id="stop3839" offset="1"/></linearGradient><radialGradient id="radialGradient3848" cx="507.519" cy="526.422" r="16.973" fx="507.519" fy="526.422" gradientUnits="userSpaceOnUse" xlink:href="#linearGradient3835"/><radialGradient id="radialGradient3873" cx="518.5" cy="531.73" r="99.302" fx="518.5" fy="531.73" gradientTransform="matrix(1.0073545,0,0,1.0067087,-3.1153029,-1.0662221)" gradientUnits="userSpaceOnUse" xlink:href="#linearGradient3875"/></defs><metadata id="metadata7"/><g id="layer1" transform="translate(-419.19776,-434.23075)"><rect style="fill:url(#radialGradient3873);fill-opacity:1;stroke:#565656;stroke-width:3.96477032;stroke-miterlimit:4;stroke-opacity:1;stroke-dasharray:none" id="rect3865" width="196.035" height="196.035" x="421.18" y="436.213" rx="25" ry="25"/><path style="fill:none;stroke:#343434;stroke-width:15.91826248;stroke-miterlimit:4;stroke-opacity:1;stroke-dasharray:none" id="path3050" d="m 646.71053,551.04639 c 0,52.68506 -42.70968,95.39473 -95.39473,95.39473 -52.68506,0 -95.39474,-42.70967 -95.39474,-95.39473 0,-52.68506 42.70968,-95.39474 95.39474,-95.39474 52.68505,0 95.39473,42.70968 95.39473,95.39474 z" transform="matrix(0.88583873,0,0,0.88583873,30.820877,46.09252)"/><g id="g3860" transform="translate(1.2311668,-0.09085464)" style="fill:#7a7a7a;fill-opacity:1"><rect id="rect3850" width="122.354" height="85.951" x="456.789" y="491.346" rx="8.535" ry="8.535" style="fill:#7a7a7a;fill-opacity:1;stroke:#565656;stroke-width:4;stroke-miterlimit:4;stroke-opacity:1;stroke-dasharray:none"/><path id="path3854" d="m 475.58024,492.00923 0,84.23955" style="fill:#7a7a7a;fill-opacity:1;stroke:#565656;stroke-width:4;stroke-linecap:butt;stroke-linejoin:miter;stroke-miterlimit:4;stroke-opacity:1;stroke-dasharray:none"/><path id="path3858" d="m 560.88612,491.47606 0,83.70639" style="fill:#7a7a7a;fill-opacity:1;stroke:#565656;stroke-width:4;stroke-linecap:butt;stroke-linejoin:miter;stroke-miterlimit:4;stroke-opacity:1;stroke-dasharray:none"/></g><rect style="fill:#626262;fill-opacity:1;stroke:none" id="rect3881" width="78.375" height="28.791" x="480.01" y="519.835" rx="6.893" ry="6.983"/><g id="lever" transform="translate(14.122572,5.5527487)" style="stroke:#dedede;stroke-opacity:1"><path id="path3824" d="m 523.68421,526.42236 c 0,8.92791 -7.2375,16.16542 -16.16541,16.16542 -8.92791,0 -16.16541,-7.23751 -16.16541,-16.16542 0,-8.92791 7.2375,-16.16541 16.16541,-16.16541 8.92791,0 16.16541,7.2375 16.16541,16.16541 z" transform="translate(-2.443609,2.2556391)" style="fill:url(#radialGradient3848);fill-opacity:1;stroke:#dedede;stroke-width:1.61600006;stroke-miterlimit:4;stroke-opacity:1;stroke-dasharray:none"/><path id="path3820" d="m 520.79209,543.94636 -12.66136,-2.06656 3.15141,12.4358 -11.19098,-6.27236 -1.29194,12.76367 -8.3708,-9.72164 -5.57946,11.55206 -4.54099,-11.99833 -9.19402,8.9471 -0.16345,-12.82786 -11.69964,5.26298 4.23378,-12.11014 -12.7941,0.94407 8.12037,-9.93177 -12.34542,-3.48871 11.02751,-6.55548 -10.40769,-7.50069 12.60458,-2.38851 -7.21464,-10.60798 12.66135,2.06655 -3.1514,-12.4358 11.19097,6.27237 1.29195,-12.76367 8.37079,9.72163 5.57947,-11.55205 4.54098,11.99833 9.19402,-8.9471 0.16346,12.82785 11.69963,-5.26297 -4.23378,12.11014 12.79411,-0.94407 -8.12037,9.93177 12.34542,3.4887 -11.02752,6.55549 10.40769,7.50069 -12.60458,2.38851 z" transform="matrix(0.37071886,0,0,0.37071886,324.67091,335.10189)" style="fill:none;stroke:#dedede;stroke-width:4.23310757;stroke-miterlimit:4;stroke-opacity:1;stroke-dasharray:none"/><path style="fill:none;stroke:#dedede;stroke-width:2.47939396;stroke-miterlimit:4;stroke-opacity:1;stroke-dasharray:none" id="path3828" d="m 523.68421,526.42236 c 0,8.92791 -7.2375,16.16542 -16.16541,16.16542 -8.92791,0 -16.16541,-7.23751 -16.16541,-16.16542 0,-8.92791 7.2375,-16.16541 16.16541,-16.16541 8.92791,0 16.16541,7.2375 16.16541,16.16541 z" transform="matrix(0.59537333,0,0,0.59537333,202.91203,215.26017)"/></g><path id="path3852" d="m 646.71053,551.04639 c 0,52.68506 -42.70968,95.39473 -95.39473,95.39473 -52.68506,0 -95.39474,-42.70967 -95.39474,-95.39473 0,-52.68506 42.70968,-95.39474 95.39474,-95.39474 52.68505,0 95.39473,42.70968 95.39473,95.39474 z" transform="matrix(0.94625779,0,0,0.94625779,-1.9559434,14.3983)" style="fill:none;stroke:#5d5d5d;stroke-width:4.37090206;stroke-miterlimit:4;stroke-opacity:1;stroke-dasharray:none"/></g></svg>